<svg width="1920" height="35" viewBox="0 0 1920 35" fill="none" xmlns="http://www.w3.org/2000/svg">
<rect width="1920" height="35" fill="#FFC700"/>
<path d="M4 0H39V17.5C39 27.165 31.165 35 21.5 35C11.835 35 4 27.165 4 17.5V0Z" fill="#FF5C00"/>
<path d="M84 0H119V17.5C119 27.165 111.165 35 101.5 35C91.835 35 84 27.165 84 17.5V0Z" fill="#FF5C00"/>
<path d="M44 0H79V17.5C79 27.165 71.165 35 61.5 35C51.835 35 44 27.165 44 17.5V0Z" fill="#FF5C00"/>
<path d="M164 0H199V17.5C199 27.165 191.165 35 181.5 35C171.835 35 164 27.165 164 17.5V0Z" fill="#FF5C00"/>
<path d="M124 0H159V17.5C159 27.165 151.165 35 141.5 35C131.835 35 124 27.165 124 17.5V0Z" fill="#FF5C00"/>
<path d="M244 0H279V17.5C279 27.165 271.165 35 261.5 35C251.835 35 244 27.165 244 17.5V0Z" fill="#FF5C00"/>
<path d="M204 0H239V17.5C239 27.165 231.165 35 221.5 35C211.835 35 204 27.165 204 17.5V0Z" fill="#FF5C00"/>
<path d="M324 0H359V17.5C359 27.165 351.165 35 341.5 35C331.835 35 324 27.165 324 17.5V0Z" fill="#FF5C00"/>
<path d="M284 0H319V17.5C319 27.165 311.165 35 301.5 35C291.835 35 284 27.165 284 17.5V0Z" fill="#FF5C00"/>
<path d="M404 0H439V17.5C439 27.165 431.165 35 421.5 35C411.835 35 404 27.165 404 17.5V0Z" fill="#FF5C00"/>
<path d="M364 0H399V17.5C399 27.165 391.165 35 381.5 35C371.835 35 364 27.165 364 17.5V0Z" fill="#FF5C00"/>
<path d="M484 0H519V17.5C519 27.165 511.165 35 501.5 35C491.835 35 484 27.165 484 17.5V0Z" fill="#FF5C00"/>
<path d="M444 0H479V17.5C479 27.165 471.165 35 461.5 35C451.835 35 444 27.165 444 17.5V0Z" fill="#FF5C00"/>
<path d="M564 0H599V17.5C599 27.165 591.165 35 581.5 35C571.835 35 564 27.165 564 17.5V0Z" fill="#FF5C00"/>
<path d="M524 0H559V17.5C559 27.165 551.165 35 541.5 35C531.835 35 524 27.165 524 17.5V0Z" fill="#FF5C00"/>
<path d="M644 0H679V17.5C679 27.165 671.165 35 661.5 35C651.835 35 644 27.165 644 17.5V0Z" fill="#FF5C00"/>
<path d="M604 0H639V17.5C639 27.165 631.165 35 621.5 35C611.835 35 604 27.165 604 17.5V0Z" fill="#FF5C00"/>
<path d="M724 0H759V17.5C759 27.165 751.165 35 741.5 35C731.835 35 724 27.165 724 17.5V0Z" fill="#FF5C00"/>
<path d="M684 0H719V17.5C719 27.165 711.165 35 701.5 35C691.835 35 684 27.165 684 17.5V0Z" fill="#FF5C00"/>
<path d="M804 0H839V17.5C839 27.165 831.165 35 821.5 35C811.835 35 804 27.165 804 17.5V0Z" fill="#FF5C00"/>
<path d="M764 0H799V17.5C799 27.165 791.165 35 781.5 35C771.835 35 764 27.165 764 17.5V0Z" fill="#FF5C00"/>
<path d="M884 0H919V17.5C919 27.165 911.165 35 901.5 35C891.835 35 884 27.165 884 17.5V0Z" fill="#FF5C00"/>
<path d="M844 0H879V17.5C879 27.165 871.165 35 861.5 35C851.835 35 844 27.165 844 17.5V0Z" fill="#FF5C00"/>
<path d="M964 0H999V17.5C999 27.165 991.165 35 981.5 35C971.835 35 964 27.165 964 17.5V0Z" fill="#FF5C00"/>
<path d="M924 0H959V17.5C959 27.165 951.165 35 941.5 35C931.835 35 924 27.165 924 17.5V0Z" fill="#FF5C00"/>
<path d="M1044 0H1079V17.5C1079 27.165 1071.16 35 1061.5 35C1051.84 35 1044 27.165 1044 17.5V0Z" fill="#FF5C00"/>
<path d="M1004 0H1039V17.5C1039 27.165 1031.16 35 1021.5 35C1011.84 35 1004 27.165 1004 17.5V0Z" fill="#FF5C00"/>
<path d="M1124 0H1159V17.5C1159 27.165 1151.16 35 1141.5 35C1131.84 35 1124 27.165 1124 17.5V0Z" fill="#FF5C00"/>
<path d="M1084 0H1119V17.5C1119 27.165 1111.16 35 1101.5 35C1091.84 35 1084 27.165 1084 17.5V0Z" fill="#FF5C00"/>
<path d="M1204 0H1239V17.5C1239 27.165 1231.16 35 1221.5 35C1211.84 35 1204 27.165 1204 17.5V0Z" fill="#FF5C00"/>
<path d="M1164 0H1199V17.5C1199 27.165 1191.16 35 1181.5 35C1171.84 35 1164 27.165 1164 17.5V0Z" fill="#FF5C00"/>
<path d="M1284 0H1319V17.5C1319 27.165 1311.16 35 1301.5 35C1291.84 35 1284 27.165 1284 17.5V0Z" fill="#FF5C00"/>
<path d="M1244 0H1279V17.5C1279 27.165 1271.16 35 1261.5 35C1251.84 35 1244 27.165 1244 17.5V0Z" fill="#FF5C00"/>
<path d="M1364 0H1399V17.5C1399 27.165 1391.16 35 1381.5 35C1371.84 35 1364 27.165 1364 17.5V0Z" fill="#FF5C00"/>
<path d="M1324 0H1359V17.5C1359 27.165 1351.16 35 1341.5 35C1331.84 35 1324 27.165 1324 17.5V0Z" fill="#FF5C00"/>
<path d="M1444 0H1479V17.5C1479 27.165 1471.16 35 1461.5 35C1451.84 35 1444 27.165 1444 17.5V0Z" fill="#FF5C00"/>
<path d="M1404 0H1439V17.5C1439 27.165 1431.16 35 1421.5 35C1411.84 35 1404 27.165 1404 17.5V0Z" fill="#FF5C00"/>
<path d="M1524 0H1559V17.5C1559 27.165 1551.16 35 1541.5 35C1531.84 35 1524 27.165 1524 17.5V0Z" fill="#FF5C00"/>
<path d="M1484 0H1519V17.5C1519 27.165 1511.16 35 1501.5 35C1491.84 35 1484 27.165 1484 17.5V0Z" fill="#FF5C00"/>
<path d="M1604 0H1639V17.5C1639 27.165 1631.16 35 1621.5 35C1611.84 35 1604 27.165 1604 17.5V0Z" fill="#FF5C00"/>
<path d="M1564 0H1599V17.5C1599 27.165 1591.16 35 1581.5 35C1571.84 35 1564 27.165 1564 17.5V0Z" fill="#FF5C00"/>
<path d="M1684 0H1719V17.5C1719 27.165 1711.16 35 1701.5 35C1691.84 35 1684 27.165 1684 17.5V0Z" fill="#FF5C00"/>
<path d="M1644 0H1679V17.5C1679 27.165 1671.16 35 1661.5 35C1651.84 35 1644 27.165 1644 17.5V0Z" fill="#FF5C00"/>
<path d="M1764 0H1799V17.5C1799 27.165 1791.16 35 1781.5 35C1771.84 35 1764 27.165 1764 17.5V0Z" fill="#FF5C00"/>
<path d="M1724 0H1759V17.5C1759 27.165 1751.16 35 1741.5 35C1731.84 35 1724 27.165 1724 17.5V0Z" fill="#FF5C00"/>
<path d="M1844 0H1879V17.5C1879 27.165 1871.16 35 1861.5 35C1851.84 35 1844 27.165 1844 17.5V0Z" fill="#FF5C00"/>
<path d="M1804 0H1839V17.5C1839 27.165 1831.16 35 1821.5 35C1811.84 35 1804 27.165 1804 17.5V0Z" fill="#FF5C00"/>
<path d="M1884 0H1919V17.5C1919 27.165 1911.16 35 1901.5 35C1891.84 35 1884 27.165 1884 17.5V0Z" fill="#FF5C00"/>
<circle cx="41.5" cy="16.5" r="7.5" fill="#73BDB9"/>
<circle cx="81.5" cy="16.5" r="7.5" fill="#73BDB9"/>
<circle cx="1.5" cy="16.5" r="7.5" fill="#73BDB9"/>
<circle cx="121.5" cy="16.5" r="7.5" fill="#73BDB9"/>
<circle cx="201.5" cy="16.5" r="7.5" fill="#73BDB9"/>
<circle cx="241.5" cy="16.5" r="7.5" fill="#73BDB9"/>
<circle cx="161.5" cy="16.5" r="7.5" fill="#73BDB9"/>
<circle cx="281.5" cy="16.5" r="7.5" fill="#73BDB9"/>
<circle cx="361.5" cy="16.5" r="7.5" fill="#73BDB9"/>
<circle cx="401.5" cy="16.5" r="7.5" fill="#73BDB9"/>
<circle cx="321.5" cy="16.5" r="7.5" fill="#73BDB9"/>
<circle cx="441.5" cy="16.5" r="7.5" fill="#73BDB9"/>
<circle cx="521.5" cy="16.5" r="7.5" fill="#73BDB9"/>
<circle cx="561.5" cy="16.5" r="7.5" fill="#73BDB9"/>
<circle cx="481.5" cy="16.5" r="7.5" fill="#73BDB9"/>
<circle cx="601.5" cy="16.5" r="7.5" fill="#73BDB9"/>
<circle cx="681.5" cy="16.5" r="7.5" fill="#73BDB9"/>
<circle cx="721.5" cy="16.5" r="7.5" fill="#73BDB9"/>
<circle cx="641.5" cy="16.5" r="7.5" fill="#73BDB9"/>
<circle cx="761.5" cy="16.5" r="7.5" fill="#73BDB9"/>
<circle cx="841.5" cy="16.5" r="7.5" fill="#73BDB9"/>
<circle cx="881.5" cy="16.5" r="7.5" fill="#73BDB9"/>
<circle cx="801.5" cy="16.5" r="7.5" fill="#73BDB9"/>
<circle cx="921.5" cy="16.5" r="7.5" fill="#73BDB9"/>
<circle cx="1001.5" cy="16.5" r="7.5" fill="#73BDB9"/>
<circle cx="1041.5" cy="16.5" r="7.5" fill="#73BDB9"/>
<circle cx="961.5" cy="16.5" r="7.5" fill="#73BDB9"/>
<circle cx="1081.5" cy="16.5" r="7.5" fill="#73BDB9"/>
<circle cx="1161.5" cy="16.5" r="7.5" fill="#73BDB9"/>
<circle cx="1201.5" cy="16.5" r="7.5" fill="#73BDB9"/>
<circle cx="1121.5" cy="16.5" r="7.5" fill="#73BDB9"/>
<circle cx="1241.5" cy="16.5" r="7.5" fill="#73BDB9"/>
<circle cx="1321.5" cy="16.5" r="7.5" fill="#73BDB9"/>
<circle cx="1361.5" cy="16.5" r="7.5" fill="#73BDB9"/>
<circle cx="1281.5" cy="16.5" r="7.5" fill="#73BDB9"/>
<circle cx="1401.5" cy="16.5" r="7.5" fill="#73BDB9"/>
<circle cx="1481.5" cy="16.5" r="7.5" fill="#73BDB9"/>
<circle cx="1521.5" cy="16.5" r="7.5" fill="#73BDB9"/>
<circle cx="1441.5" cy="16.5" r="7.5" fill="#73BDB9"/>
<circle cx="1561.5" cy="16.5" r="7.5" fill="#73BDB9"/>
<circle cx="1641.5" cy="16.5" r="7.5" fill="#73BDB9"/>
<circle cx="1681.5" cy="16.5" r="7.5" fill="#73BDB9"/>
<circle cx="1601.5" cy="16.5" r="7.5" fill="#73BDB9"/>
<circle cx="1721.5" cy="16.5" r="7.5" fill="#73BDB9"/>
<circle cx="1801.5" cy="16.5" r="7.5" fill="#73BDB9"/>
<circle cx="1841.5" cy="16.5" r="7.5" fill="#73BDB9"/>
<circle cx="1761.5" cy="16.5" r="7.5" fill="#73BDB9"/>
<circle cx="1881.5" cy="16.5" r="7.5" fill="#73BDB9"/>
<circle cx="1920.5" cy="16.5" r="7.5" fill="#73BDB9"/>
</svg>
